<!DOCTYPE svg PUBLIC "-//W3C//DTD SVG 1.1//EN" "http://www.w3.org/Graphics/SVG/1.1/DTD/svg11.dtd">
<!-- Uploaded to: SVG Repo, www.svgrepo.com, Transformed by: SVG Repo Mixer Tools -->
<svg width="256px" height="256px" viewBox="-9.58 0 392.333 392.333" xmlns="http://www.w3.org/2000/svg" fill="#000000">
<g id="SVGRepo_bgCarrier" stroke-width="0"/>
<g id="SVGRepo_tracerCarrier" stroke-linecap="round" stroke-linejoin="round"/>
<g id="SVGRepo_iconCarrier">
<defs>
<style>.a{fill:#ffffff;}.b{fill:#211715;}.c{fill:#7a7473;}.d{fill:#6dbf6b;}.e{fill:#bdbdbd;}.f{fill:none;}</style>
</defs>
<path class="a" d="M264.633,243.818c2.362-7.1,4.676-14.412,6.866-21.762,5.015-16.833,8.71-35.4,9.822-41.477a42.554,42.554,0,0,0-7.947-10.226,89.453,89.453,0,0,1-25.817,17.993c-.535.242-1.131.539-1.3,1.1a2.073,2.073,0,0,0,.3,1.458,4.521,4.521,0,0,0,.369.577l-7.984.015a3.442,3.442,0,0,0,.273-.442,2.085,2.085,0,0,0,.3-1.468c-.174-.565-.774-.864-1.313-1.108a90.11,90.11,0,0,1-26.007-18.125,45.221,45.221,0,0,0-9.507,13.122c2.526,7.5,7.064,18.875,12.214,33.63,9.422,27,22.334,57.121,29.283,72.128l1.975,3.441C251.707,280.12,258.341,262.727,264.633,243.818Z"/>
<path class="a" d="M70.157,254.14a32.155,32.155,0,0,0-5.542-4.413c-5.844-2.781-13.935-4.866-20.111-6.679-6.53-1.918-11.138-4.621-16.158-7.672-4.642-2.821-10.9-7.952-15.148-11.239-6.166-4.769-16.9-19.418-6.332-24.3,2.958-.8,8.279-1.112,10.854.547.9.122,2.506-.728,4-.433,5.487,1.084,11.141,4.692,16.2,7.07,2.619,1.231,4.619,2.87,7.495,3.524s18.2,3.3,23.539,4.44c-.2-.51-.337-.854-.337-.854-2.178-5.621-9.015-11.047-11.807-17.6-1.5-3.52-2.77-6.674.672-9.02,3.1-2.109,5.585-.527,8.061,1.818a181.721,181.721,0,0,1,15.5,16.219c4.626,5.585,7.126,9.654,9.223,16.9.92,3.176.046,8.34,1.346,11.405,1,2.367,3.51,6.151,5.279,9.9C96.9,243.75,72.961,253.227,70.157,254.14Z"/>
<path class="b" d="M70.932,213.493c-2.367-5.907-7.423-10.089-10.652-15.478A24.483,24.483,0,0,1,58.359,194c-.377-1.009-.881-2.348-.593-3.251a3.1,3.1,0,0,1,2.46-1.817c1.257-.11,2.457,1.026,3.315,1.81a165.635,165.635,0,0,1,15.654,16.312A42.994,42.994,0,0,1,87.9,222.882c.941,3.29.245,6.85.971,10.2a17.214,17.214,0,0,0,1.985,4.568c1.029,1.859,2.108,3.69,3.1,5.572,1.437,2.735,5.581.312,4.144-2.423-.927-1.765-1.931-3.486-2.9-5.225a13.521,13.521,0,0,1-1.73-3.935c-.659-3.309,0-6.749-.936-10.034a44.239,44.239,0,0,0-3.932-9.594,58.464,58.464,0,0,0-6.165-8.542c-2.668-3.2-5.49-6.266-8.413-9.232a91.653,91.653,0,0,0-8.333-7.946,8.806,8.806,0,0,0-5.288-2.169,8.039,8.039,0,0,0-5.37,2.294c-2.692,2.489-2.392,6.061-1.17,9.194A39.678,39.678,0,0,0,60.148,206c2.173,2.727,4.839,5.481,6.156,8.765a2.473,2.473,0,0,0,2.952,1.676,2.416,2.416,0,0,0,1.676-2.952Z"/>
<path class="b" d="M70.206,212.807c-5.876-1.323-11.847-2.268-17.77-3.355-2.261-.414-4.582-.734-6.8-1.33-2.141-.574-3.957-1.9-5.914-2.889-2.18-1.1-4.364-2.193-6.538-3.308a58.573,58.573,0,0,0-7.8-3.464,15.377,15.377,0,0,0-4.071-.964c-1.214-.058-2.487.537-3.591.484l1.211.328c-3.1-1.874-7.166-1.72-10.615-1.206A9.511,9.511,0,0,0,.921,202.29c-2.609,5.615.816,12.167,4.155,16.681,4.04,5.463,9.468,9.33,14.831,13.406a81.109,81.109,0,0,0,20.577,11.866c4.423,1.639,9.059,2.7,13.561,4.1,2.2.683,4.384,1.411,6.529,2.247a22.085,22.085,0,0,1,6.127,3.6,2.47,2.47,0,0,0,3.394,0,2.419,2.419,0,0,0,0-3.394,31.339,31.339,0,0,0-4.266-3.135,33.6,33.6,0,0,0-4.547-1.918c-2.889-1.1-5.844-2.014-8.807-2.888-5.891-1.738-11.7-3.266-17.146-6.19a104.254,104.254,0,0,1-14.472-9.56c-3.727-2.885-7.577-5.624-10.615-9.263-2.482-2.974-5.151-7.156-5.409-10.674A4.462,4.462,0,0,1,6.081,203.2c1.4-1.377,3.524-1.573,5.644-1.616a12.545,12.545,0,0,1,3.462.321,6.124,6.124,0,0,1,1.086.4,4.086,4.086,0,0,0,2.8.341,12.126,12.126,0,0,1,1.825-.363,6.413,6.413,0,0,1,1.793.36,31.2,31.2,0,0,1,4.674,1.754c2.919,1.343,5.716,2.93,8.606,4.333s5.639,3.369,8.809,4.118c7.968,1.886,16.159,2.782,24.15,4.58,3.008.678,4.293-3.949,1.276-4.628Z"/>
<path class="b" d="M52.782,229.2c7.121,1.163,15.708.776,21.46,5.83a2.458,2.458,0,0,0,3.394,0,2.422,2.422,0,0,0,0-3.394C71,225.807,62.3,225.921,54.058,224.576a2.473,2.473,0,0,0-2.952,1.676,2.419,2.419,0,0,0,1.676,2.952Z"/>
<path class="b" d="M18.684,206.224A46.858,46.858,0,0,0,29.3,214a73.233,73.233,0,0,0,11.766,5.311,2.4,2.4,0,1,0,1.276-4.629,66.016,66.016,0,0,1-10.619-4.826,42.283,42.283,0,0,1-9.643-7.025c-2.168-2.208-5.561,1.187-3.394,3.394Z"/>
<path class="b" d="M11.613,211.444a25.9,25.9,0,0,0,5.252,4.466c2.349,1.655,4.809,3.152,7.3,4.581a92.231,92.231,0,0,0,12.615,6.347,2.42,2.42,0,0,0,2.953-1.677,2.455,2.455,0,0,0-1.677-2.952c-.152-.058-.3-.121-.455-.181-.441-.173.463.212.033.013-.376-.173-.756-.336-1.131-.51-.957-.443-1.9-.906-2.846-1.38q-3.586-1.8-7.069-3.8c-2.411-1.384-4.793-2.832-7.074-4.424a20.261,20.261,0,0,1-4.506-3.873,2.417,2.417,0,0,0-3.394,0,2.455,2.455,0,0,0,0,3.394Z"/>
<path class="a" d="M65.161,254.25l-.123-.329c4.82-2.29,32.19-12.35,35.7-13.65,1.178,1.728,5.14,14.02,5.778,16.541-7.507,1.942-28.716,9.342-36.157,12.116l-.139-.331C69.064,265.84,66.293,257.324,65.161,254.25Z"/>
<path class="a" d="M301.358,95.339a8.6,8.6,0,0,1,6.885-2.014,8.122,8.122,0,0,1,5.842,3.884,11.473,11.473,0,0,1,1.2,4.621,34.427,34.427,0,0,1-3.51,18.249,21.883,21.883,0,0,1-5.658,7.425,14.493,14.493,0,0,1-6.746,3.041s-.42.065-1.157.185c-.553,2.069-1.174,3.812-1.479,4.738-1.9,5.152-12.225,22.553-25.4,29.793-.413,10.905,5.334,22.99,17.172,24.565,0,0-5.874,33.734-47.176,33.734s-40.391-36.007-40.391-36.007c3.78-1.489,8.211-2.6,10.087-6.6,2.359-5.037,2.251-11.78,2.527-17.194a54.135,54.135,0,0,1-12.342-11.095,58.544,58.544,0,0,1-11.157-21.779l-2.2-.338a14.5,14.5,0,0,1-6.746-3.04,21.871,21.871,0,0,1-5.658-7.426,34.428,34.428,0,0,1-3.511-18.249,11.489,11.489,0,0,1,1.2-4.621,8.125,8.125,0,0,1,5.842-3.884,8.606,8.606,0,0,1,6.886,2.014s-3.813-52.52,55.459-52.52C303.542,42.819,301.358,95.339,301.358,95.339Z"/>
<path class="c" d="M292.517,30.579c8,3.851,12.906,12.4,15.76,19.689,4.23,10.806,5.347,29.073.778,43.222a7.943,7.943,0,0,0-.812-.165,8.577,8.577,0,0,0-6.658,1.834c-1.1-6.485-6.922-19.808-12.657-26.728-3.839-4.639-7.449-8.128-13.879-10.441a58.8,58.8,0,0,1-11,5.357,67.365,67.365,0,0,1-15.808,3.4c-15.752,1.293-26.157,1.273-40.958-2.766-2.262,13.223-10.113,24.164-21.269,31.5a8.579,8.579,0,0,0-7.031-2.149q-.283.042-.563.1c-4.8-13.575-5.939-32.193.365-48.659A42.976,42.976,0,0,0,181.243,30.3a47.877,47.877,0,0,1,9.274-10.3C205.628,7.338,221.094,3.547,236.033,2.5c16.286-1.139,40.41,4.225,49.891,21.854Z"/>
<path class="b" d="M211.148,163.936c-.235,4.895-.124,9.968-1.743,14.659a7.358,7.358,0,0,1-3.353,4.212,38.964,38.964,0,0,1-5.749,2.432,2.47,2.47,0,0,0-1.676,2.952,2.418,2.418,0,0,0,2.952,1.676,46.722,46.722,0,0,0,6.895-2.915,12.024,12.024,0,0,0,5.165-6.037c2.17-5.327,2.038-11.329,2.309-16.979.149-3.088-4.652-3.08-4.8,0Z"/>
<path class="b" d="M268.922,165.653c-.218,11.732,6.322,24.692,18.948,26.487a2.48,2.48,0,0,0,2.952-1.676,2.415,2.415,0,0,0-1.676-2.952,16.273,16.273,0,0,1-11.723-7.646,25.747,25.747,0,0,1-3.7-14.213c.057-3.09-4.743-3.09-4.8,0Z"/>
<path class="d" d="M253.746,205.968c.517-1.578.907-3.01,1.253-4.392-1.063-1.287-2.119-2.569-3.107-3.777-2.283-2.794-4.181-5.172-4.974-6.318l-7.979.015c-.735,1.1-2.717,3.579-5.108,6.5-.467.571-.949,1.159-1.44,1.755.453,2.316.9,4.632,1.443,6.948q.183.781.38,1.563a13.759,13.759,0,0,1,.568,3.465c-.006.785-2.663,22.375-5.264,43.625,5.624,13.726,10.981,25.924,14.663,33.876l1.783,3.848c4.042-9.088,8.672-20.8,13.332-33.817-3.145-21.1-6.918-45.948-6.9-47.145A21.009,21.009,0,0,1,253.746,205.968Z"/>
<path class="b" d="M235.584,213.977c5.431,0,10.862-.12,16.293-.122a2.4,2.4,0,0,0,0-4.8c-5.431,0-10.862.12-16.293.122a2.4,2.4,0,0,0,0,4.8Z"/>
<path class="b" d="M261.823,260.053q-2.359-15.808-4.722-31.617c-.587-3.964-1.174-7.929-1.737-11.9q-.135-.948-.266-1.895-.053-.38-.1-.76c.106.784-.023-.173-.046-.352a10.131,10.131,0,0,1-.137-1.863,19.514,19.514,0,0,1,1.178-4.848q.808-2.492,1.433-5.032c.8-3.244,1.485-6.5,2.513-9.685a2.42,2.42,0,0,0-2.314-3.038c-9,0-18,.041-27.005.042a2.427,2.427,0,0,0-2.314,3.038c1.438,5.758,2.371,11.629,3.756,17.4a15.306,15.306,0,0,1-.062,5.672c-.959,8.171-1.969,16.336-2.967,24.5q-1.067,8.731-2.136,17.462a2.413,2.413,0,0,0,2.4,2.4,2.458,2.458,0,0,0,2.4-2.4q1.868-15.269,3.73-30.536.651-5.358,1.289-10.717a25.317,25.317,0,0,0,.425-5.074c-.278-3.194-1.376-6.4-2-9.539-.695-3.491-1.341-6.992-2.2-10.447l-2.314,3.038c9,0,18-.041,27.005-.042l-2.314-3.038c-.942,2.915-1.607,5.891-2.316,8.867-.715,3-1.824,5.893-2.521,8.891-.655,2.813-.324,5.012.063,7.795,1.215,8.736,2.548,17.456,3.853,26.179q1.4,9.384,2.807,18.769a2.418,2.418,0,0,0,2.953,1.677,2.463,2.463,0,0,0,1.676-2.953Z"/>
<path class="e" d="M370.451,389.324c-2.52-48.846-5.753-99.66-8.106-146.47-.6-12.027-2.776-21.257-14.68-30.759-2.789-2.226-6.7-2.858-9.836-4.563-18.576-10.1-34.453-18.353-56.655-27.214a330.433,330.433,0,0,1-9.675,41.738c-8.09,27.152-17.87,53.79-25.535,71.025l-1.783-3.848c-6.949-15.007-19.861-45.133-29.283-72.128-5.009-14.35-9.439-26.322-12-34.05-18.814,7.853-33.3,15.422-49.947,24.477-3.724,2.025-8.545,2.537-11.29,6.036a13.749,13.749,0,0,0-1.815,1.374c-4.026,4.769-6.868,12.594-8.2,17.695-2.185,8.377-5.639,23.02-9.2,38.15a91.292,91.292,0,0,0-4.091,12.537c-4.145-12.119-8.239-24.411-9.482-26.985-3.472.1-34.685,11.048-40.282,13.263.524,3.821,1.412,9.461,2.651,16.125,2.553,13.737,6.593,31.822,11.992,47.28,4.073,11.66,6.567,24.108,18.524,31.794,12.221,7.857,24.892,4.629,34.842-3.175,6.365-4.99,7.2-6.5,11.774-11.7,4.519-5.134,10.244-13.044,12.2-17.235l.352-.465c.855,11.977,1.5,21.829,1.693,24.979.528,8.743-.873,17.461-1.784,26.173-.263,2.517-.52,4.953-.772,7.322"/>
<path class="a" d="M262.527,210.7c8.29-8.239,13.72-18.218,19.844-28.187a44.168,44.168,0,0,0-9-12.156,89.453,89.453,0,0,1-25.817,17.993c-.535.242-1.131.539-1.3,1.1a2.073,2.073,0,0,0,.3,1.458,83.5,83.5,0,0,0,5.34,6.9C255.525,202.244,260.087,207.692,262.527,210.7Z"/>
<path class="a" d="M223.119,210.992c-8.352-8.3-13.821-18.352-19.991-28.393a44.525,44.525,0,0,1,9.063-12.246A90.11,90.11,0,0,0,238.2,188.478c.539.244,1.139.543,1.313,1.108a2.085,2.085,0,0,1-.3,1.468A83.771,83.771,0,0,1,233.831,198C230.171,202.479,225.576,207.966,223.119,210.992Z"/>
<path class="b" d="M264.224,212.393c6.258-6.264,11.12-13.69,15.7-21.221,1.12-1.843,2.229-3.692,3.348-5.535.678-1.115,1.8-2.37,1.412-3.766a12.845,12.845,0,0,0-1.454-2.784,45.087,45.087,0,0,0-8.16-10.431,2.442,2.442,0,0,0-3.394,0,86.5,86.5,0,0,1-21.425,15.713q-1.383.721-2.794,1.389a7.988,7.988,0,0,0-2.751,1.684c-1.417,1.581-.9,3.764.2,5.349,2.25,3.233,4.886,6.232,7.389,9.268,2.84,3.447,5.712,6.869,8.53,10.334a2.417,2.417,0,0,0,3.394,0,2.456,2.456,0,0,0,0-3.394c-2.863-3.52-5.78-7-8.665-10.5-1.6-1.94-3.195-3.883-4.759-5.851-.55-.692-2.262-2.305-2.146-3.2l-.328,1.211-.2.092a3.977,3.977,0,0,1,.478-.254c.3-.147.6-.278.9-.418q.841-.392,1.673-.805,1.794-.889,3.544-1.864,3.7-2.059,7.2-4.462a90.9,90.9,0,0,0,13.147-10.9h-3.394a42.856,42.856,0,0,1,8.622,11.671V181.3c-5.91,9.633-11.416,19.64-19.469,27.7C258.644,211.187,262.037,214.582,264.224,212.393Z"/>
<path class="b" d="M224.816,209.3c-8.114-8.12-13.661-18.2-19.615-27.908v2.423a43.173,43.173,0,0,1,8.688-11.76h-3.4a91.578,91.578,0,0,0,13.24,10.973q3.43,2.354,7.063,4.39,1.763.987,3.57,1.89.93.464,1.873.9c.248.116.5.225.747.344a4.08,4.08,0,0,1,.486.243q.334.179-.035,0l-.327-1.211c.114.884-1.5,2.406-2.047,3.089-1.613,2.035-3.263,4.041-4.914,6.046-2.906,3.527-5.845,7.028-8.729,10.574a2.472,2.472,0,0,0,0,3.394,2.418,2.418,0,0,0,3.4,0c5.14-6.322,10.56-12.446,15.459-18.96a6.113,6.113,0,0,0,1.636-4.143c-.2-2.6-2.972-3.363-4.934-4.335a89.234,89.234,0,0,1-11.367-6.75,84.566,84.566,0,0,1-11.721-9.845,2.446,2.446,0,0,0-3.4,0,45.426,45.426,0,0,0-8.217,10.5c-.57.984-1.549,2.269-1.549,3.439,0,1.136.931,2.194,1.492,3.117,1.152,1.9,2.292,3.8,3.445,5.694,4.6,7.553,9.479,15,15.756,21.279C223.608,214.877,227,211.484,224.816,209.3Z"/>
<path class="b" d="M72.535,267.959c-1.987-4.792-3.356-9.824-5.183-14.676l-1.1,2.711c.264-.125.531-.244.8-.362.187-.082.376-.161.564-.242-.284.122-.181.074.217-.09q1.533-.632,3.075-1.239c2.707-1.07,5.425-2.111,8.146-3.145q8.5-3.231,17.04-6.376,2.643-.98,5.287-1.955l-2.71-1.1a8.427,8.427,0,0,1,.544,1.067c.114.246.119.283.008.012l.192.474q.189.472.368.949c.634,1.669,1.218,3.357,1.789,5.049.937,2.781,1.908,5.58,2.637,8.425.766,2.991,5.4,1.723,4.628-1.276-.753-2.939-1.759-5.83-2.731-8.7-.566-1.674-1.146-3.344-1.779-4.993a18.031,18.031,0,0,0-1.512-3.428,2.443,2.443,0,0,0-2.71-1.1c-9.967,3.69-19.954,7.339-29.846,11.228-2.154.847-4.333,1.676-6.427,2.664a2.4,2.4,0,0,0-1.1,2.71c1.827,4.852,3.2,9.884,5.182,14.676a2.479,2.479,0,0,0,2.952,1.676,2.415,2.415,0,0,0,1.677-2.952Z"/>
<path class="b" d="M142.834,209.99a22.478,22.478,0,0,0-4.6,3.166,24.806,24.806,0,0,0-4.32,6.616,69.408,69.408,0,0,0-5.09,14.2c-2.964,11.616-5.66,23.3-8.4,34.971-.56,2.384-1.7,4.74-2.466,7.115-.7,2.187-1.373,4.394-1.908,6.628-.719,3,3.908,4.284,4.629,1.276a77.794,77.794,0,0,1,3.562-11.329c1.239-2.923,1.712-6.244,2.441-9.335q1.08-4.581,2.169-9.161c1.275-5.361,2.558-10.721,3.894-16.068a88.183,88.183,0,0,1,3.988-13.012,36.173,36.173,0,0,1,4.3-7.774,13.173,13.173,0,0,1,4.228-3.148c2.7-1.508.279-5.656-2.422-4.145Z"/>
<path class="b" d="M129.617,307.127c-.214-.433-.411-.872-.607-1.313-.058-.131-.112-.262-.169-.393.283.654.06.145.006.012-.147-.36-.3-.72-.44-1.081-.6-1.508-1.174-3.028-1.736-4.552-1.449-3.932-2.828-7.89-4.2-11.851-2.858-8.283-5.615-16.6-8.511-24.871a78.938,78.938,0,0,0-3.012-7.951,2.345,2.345,0,0,0-2.073-1.188,23.066,23.066,0,0,0-5.29,1.193c-2.934.854-5.844,1.794-8.747,2.746q-10.043,3.3-19.99,6.871c-2.3.825-4.616,1.64-6.893,2.539a2.507,2.507,0,0,0-1.676,2.952c1.376,10,3.256,19.945,5.418,29.8,1.421,6.479,2.993,12.927,4.777,19.316,1.728,6.189,3.812,12.243,5.812,18.345,1.794,5.474,3.545,11.022,6.3,16.106a35.446,35.446,0,0,0,12.369,13.322,29.45,29.45,0,0,0,20.11,4.212c6.734-1.027,12.71-4.415,17.971-8.6a87.739,87.739,0,0,0,12.447-12.762c2.318-2.769,4.517-5.648,6.588-8.607a52.629,52.629,0,0,0,4.576-7.468,2.467,2.467,0,0,0-.861-3.283,2.421,2.421,0,0,0-3.284.861c-2.331,4.909-5.805,9.421-9.2,13.63a99.537,99.537,0,0,1-9.909,11.072c-4.45,4.069-9.5,7.742-15.313,9.546a24.273,24.273,0,0,1-17.84-1.164,29.861,29.861,0,0,1-12.631-11.642c-2.826-4.713-4.549-9.942-6.248-15.138-1.882-5.752-3.885-11.455-5.566-17.272-1.777-6.15-3.344-12.36-4.765-18.6-2.478-10.886-4.6-21.885-6.12-32.948l-1.677,2.952c4.91-1.937,9.926-3.631,14.912-5.359,6.424-2.227,12.864-4.437,19.376-6.4,1.248-.375,2.5-.744,3.761-1.066.436-.111.873-.22,1.314-.307a4.232,4.232,0,0,0,.452-.082c.221-.072-.77.061-.171.036l-2.072-1.189a1.769,1.769,0,0,0,.187.411c.309.318-.229-.587.019.051.2.516.405,1.029.6,1.547.5,1.328.974,2.665,1.445,4,1.313,3.727,2.584,7.469,3.856,11.211,2.89,8.493,5.731,17.007,8.81,25.434a91.838,91.838,0,0,0,3.749,9.342,2.4,2.4,0,0,0,4.144-2.422Z"/>
<path class="b" d="M156.5,305.188q1.439,18,2.661,36.013c.594,8.615,1.542,17.318.961,25.953-.512,7.614-1.6,15.193-2.412,22.779a2.415,2.415,0,0,0,2.4,2.4,2.456,2.456,0,0,0,2.4-2.4c1.259-11.743,3.114-23.418,2.354-35.255q-.911-14.173-1.956-28.338-.77-10.579-1.608-21.152a2.461,2.461,0,0,0-2.4-2.4,2.418,2.418,0,0,0-2.4,2.4Z"/>
<path class="b" d="M143.958,212.9c1.6,11.2,3.52,22.351,5.324,33.517,1.813,11.217,3.736,22.491,4.949,33.582.917,8.38,1.6,16.787,2.271,25.189a2.461,2.461,0,0,0,2.4,2.4,2.419,2.419,0,0,0,2.4-2.4c-1.044-13.022-2.188-26.013-4.092-38.94-1.833-12.445-3.915-24.852-5.922-37.269-.935-5.779-1.872-11.559-2.7-17.355a2.415,2.415,0,0,0-2.952-1.676,2.463,2.463,0,0,0-1.677,2.952Z"/>
<path class="b" d="M144.329,214.164a20.623,20.623,0,0,1,5.555-2.727,46.475,46.475,0,0,0,5.963-2.749q6.145-3.331,12.332-6.588c8.351-4.373,16.8-8.548,25.4-12.416a2.418,2.418,0,0,0,.861-3.284,2.458,2.458,0,0,0-3.283-.861c-8.6,3.869-17.05,8.043-25.4,12.417q-6.192,3.243-12.332,6.587a42.942,42.942,0,0,1-5.583,2.548,22.387,22.387,0,0,0-5.934,2.928,2.478,2.478,0,0,0-.861,3.284,2.416,2.416,0,0,0,3.283.861Z"/>
<path class="f" d="M164.1,389.815c34.549,0,134.151.122,159.942.122"/>
<path class="b" d="M251.871,326.881c0-.265.02-.526.039-.79.037-.5-.116.6-.013.115.028-.129.05-.259.08-.388.061-.257.145-.5.227-.755.152-.463-.265.52-.038.09.082-.155.158-.312.249-.463.068-.113.144-.22.216-.331.264-.4-.388.415-.046.069a4.67,4.67,0,0,0,.585-.563c-.233.366-.313.227-.032.046.08-.052.163-.1.246-.149a2.593,2.593,0,0,0,.4-.2q-.513.208-.147.066c.1-.037.2-.071.3-.1a3.117,3.117,0,0,1,.989-.226c-.611-.045-.066.018.1.008.2-.013.393-.022.59-.018s.373.024.56.035c.6.037-.506-.128.061.015a9.144,9.144,0,0,1,1.1.311c-.009.023-.52-.253-.018.008q.195.1.383.219c.267.168.238.335-.019-.044a1.515,1.515,0,0,0,.215.182c.2.176.365.456.574.605-.388-.275-.217-.293-.051-.038q.151.234.279.481c.115.222.1.5-.007-.064a3.536,3.536,0,0,0,.147.4,7.56,7.56,0,0,1,.224.835,2.666,2.666,0,0,0,.077.433c-.208-.511-.041-.329-.018-.047a8.212,8.212,0,0,1,.025.967c0,.09-.012.18-.016.271-.014.3-.159.183.04-.25a4.5,4.5,0,0,0-.14.68,6.931,6.931,0,0,0-.225.685c-.056-.057.274-.592.044-.122q-.111.225-.24.44c-.066.109-.139.213-.208.321-.256.4.386-.43.06-.076-.181.2-.367.382-.558.569-.351.345.473-.307.055-.034-.119.078-.234.159-.356.232-.083.05-.167.1-.252.143-.589.312.292-.067-.115.066a8.892,8.892,0,0,1-.934.269c-.176.037-.608.233-.053.024a2.1,2.1,0,0,1-.556.043c-.23.01-.926.115-1.116-.027l.3.044c-.11-.016-.219-.036-.327-.058a5.633,5.633,0,0,1-.613-.16l-.144-.049q-.364-.138.159.076c-.078-.1-.387-.194-.505-.265a1.974,1.974,0,0,0-.347-.228q.454.361.167.124l-.1-.088c-.1-.089-.193-.182-.284-.278-.06-.064-.118-.129-.175-.195q-.237-.288.133.179c-.123-.264-.337-.5-.473-.766-.057-.11-.1-.238-.165-.344.369.606.088.209.012-.015a7.589,7.589,0,0,1-.23-.835c-.026-.118-.042-.239-.069-.356-.1-.412.053.68.008.055-.019-.26-.037-.517-.038-.777a2.4,2.4,0,0,0-4.8,0c.021,3.069,1.386,6.391,4.249,7.84,3.34,1.69,8.091,1.114,10.566-1.845a9.133,9.133,0,0,0,1.474-9.024,8.05,8.05,0,0,0-3.373-4.2,9.4,9.4,0,0,0-6.163-1.01,7.831,7.831,0,0,0-5.26,3.186,8.727,8.727,0,0,0-1.493,5.051,2.4,2.4,0,0,0,4.8,0Z"/>
<path class="b" d="M199.422,181.13c1.715,5.691,3.9,11.244,5.972,16.811,3.036,8.159,5.933,16.364,8.873,24.558,5.805,16.174,12.226,32.128,18.979,47.928,2.867,6.71,5.8,13.394,8.863,20.017a2.42,2.42,0,0,0,3.284.861,2.456,2.456,0,0,0,.861-3.284c-5.994-12.952-11.555-26.111-16.877-39.352-6.566-16.335-12.283-32.959-18.408-49.457-2.381-6.415-4.942-12.8-6.919-19.358-.889-2.95-5.523-1.693-4.628,1.276Z"/>
<path class="b" d="M284.55,184.255a477.522,477.522,0,0,1,43.26,20.6c3.447,1.838,6.843,3.979,10.432,5.524,1.745.752,3.568,1.311,5.305,2.077a17.155,17.155,0,0,1,4.424,3.007,32.513,32.513,0,0,1,10.222,15.29c1.871,6.448,1.811,13.286,2.154,19.935q.668,12.9,1.385,25.793,1.464,26.446,3.008,52.888,1.533,26.736,2.97,53.476.171,3.237.338,6.475c.159,3.074,4.96,3.093,4.8,0q-1.4-27.069-2.975-54.13-1.541-26.979-3.077-53.96-.735-13.18-1.431-26.365c-.388-7.4-.315-15.006-1.789-22.3a35.64,35.64,0,0,0-8.521-16.868c-2.5-2.783-5.473-5.718-8.9-7.3-1.793-.83-3.677-1.417-5.5-2.169a55.03,55.03,0,0,1-5.1-2.656c-14.2-7.673-28.577-14.974-43.428-21.307q-3.143-1.34-6.3-2.636a2.414,2.414,0,0,0-2.952,1.676,2.459,2.459,0,0,0,1.676,2.952Z"/>
<path class="b" d="M341.75,211.089q-2.895,18.292-5.651,36.606c-1.683,11.233-3.477,22.482-4.628,33.785-1.108,10.9-1.86,21.831-2.61,32.756q-1.132,16.49-2.105,32.989-.28,4.669-.555,9.34c-.514,8.594.685,17.082,1.615,25.605.249,2.283.482,4.568.724,6.851a2.469,2.469,0,0,0,2.4,2.4,2.417,2.417,0,0,0,2.4-2.4c-.989-9.341-2.535-18.762-2.492-28.173.016-3.524.316-7.057.526-10.574q.93-15.6,1.959-31.2c.761-11.376,1.542-22.756,2.6-34.108.981-10.529,2.5-20.526,4.058-31.05q2.831-19.131,5.863-38.229.262-1.66.524-3.321a2.475,2.475,0,0,0-1.676-2.952,2.419,2.419,0,0,0-2.952,1.676Z"/>
<path class="b" d="M245.467,389.9c-1.881-15.68-3.518-31.391-5.008-47.113-.511-5.4-1.013-10.8-1.437-16.206a41.144,41.144,0,0,1,.589-12.969c1.293-5.41,4.256-10.224,6.624-15.317,2.994-6.442,5.719-13.011,8.33-19.616,6.688-16.918,12.6-34.154,17.913-51.552a414.988,414.988,0,0,0,10.95-44.822c.14-.746.277-1.492.406-2.24a2.469,2.469,0,0,0-1.676-2.952,2.419,2.419,0,0,0-2.952,1.676,378.966,378.966,0,0,1-9.382,40.453c-5.158,17.852-11.17,35.5-17.822,52.852-2.631,6.863-5.374,13.687-8.373,20.4-2.371,5.306-5.3,10.416-7.394,15.838-3.664,9.5-1.933,19.762-1.03,29.591q2.117,23.039,4.761,46.027.345,2.976.7,5.951a2.476,2.476,0,0,0,2.4,2.4,2.414,2.414,0,0,0,2.4-2.4Z"/>
<path class="b" d="M200.525,178.42a61.772,61.772,0,0,0-7.574,5.606q-4.744,3.859-9.228,8.028a68.733,68.733,0,0,0-7.126,7.354,9.533,9.533,0,0,0-1.936,3.184c-.459,1.654.455,2.733,1.375,3.989,3.355,4.58,6.687,9.323,10.681,13.377v-3.4a53.1,53.1,0,0,0-7.056,7.167c-1.061,1.373-2.358,3.156-1.9,5a15.137,15.137,0,0,0,1.8,3.739c2.864,4.929,6.116,9.646,9.329,14.351,9.161,13.415,18.666,26.626,28.59,39.488,3.674,4.761,7.3,9.818,11.652,14,2.227,2.141,5.626-1.248,3.394-3.394A105.051,105.051,0,0,1,223,285.653c-2.049-2.618-4.184-5.423-6.393-8.367q-3.633-4.842-7.2-9.737c-8.436-11.571-16.926-23.225-24.452-35.418-.566-.916-1.123-1.838-1.65-2.777-.2-.35-.39-.7-.573-1.061-.077-.152-.149-.307-.226-.459-.282-.558.037.153.055.154-.08,0-.141-.564-.184-.566.5.019.074.792.074.548a.434.434,0,0,1,0-.051q-.157.978-.042.416l.056-.189q-.173.363.024-.044c.12-.237.259-.466.4-.69,1.833-2.864,4.692-5.229,7.218-7.454a2.43,2.43,0,0,0,0-3.4,99.3,99.3,0,0,1-8.892-10.991q-.82-1.113-1.636-2.23a5.109,5.109,0,0,1-.536-.735c.19-.381.276,1.446.271.987,0-.391-.124.707-.049.347.106-.509-.2.248-.053.088a3.225,3.225,0,0,0,.271-.485c.115-.188.244-.368.369-.551.055-.081.116-.157.173-.237.222-.312-.318.375.118-.15,4.482-5.4,9.983-10.068,15.383-14.518q1.137-.939,2.292-1.855c.343-.271.686-.541,1.033-.808-.372.287.21-.159.231-.176l.518-.391a36.277,36.277,0,0,1,3.343-2.294c2.666-1.558.253-5.708-2.422-4.144Z"/>
<path class="b" d="M280.309,181.5c1,.585,1.949,1.261,2.886,1.942,1.445,1.049,2.41,1.8,3.644,2.776q4.773,3.777,9.332,7.819a101.3,101.3,0,0,1,7.678,7.35c.4.442.786.9,1.175,1.357.315.368-.229-.381.175.237.126.192.25.384.374.577.145.224.274.731-.006-.091.147.43,0,.189,0-.231s.643-1.321.034-.662c.019-.021-.392.515-.2.272.1-.127-.347.437-.417.525-3.385,4.229-7.022,8.283-10.721,12.239a2.427,2.427,0,0,0,0,3.394,62.224,62.224,0,0,1,6.822,6.614,12.67,12.67,0,0,1,1.01,1.332c.1.153.69,1.088.422.718.169.233.036,1.006.013-.231,0,.017,0,.034,0,.052,0-.074.222-.771.047-.4-.08.169-.115.381-.179.559-.039.109-.089.215-.127.324-.15.439.3-.654,0-.007-.338.731-.682,1.458-1.045,2.177-2.552,5.058-5.411,9.968-8.252,14.867q-11.555,19.933-23.927,39.392c-1.773,2.783-3.561,5.558-5.4,8.3-.7,1.047-1.408,2.089-2.133,3.12-.278.394-.557.786-.842,1.174-.123.168-.248.335-.372.5-.463.626.2-.25-.068.092a2.477,2.477,0,0,0,0,3.394,2.417,2.417,0,0,0,3.394,0c3.054-3.884,5.687-8.114,8.351-12.268,4.11-6.4,8.116-12.875,12.078-19.372,7.28-11.939,14.735-23.906,21.1-36.367a21.91,21.91,0,0,0,2.053-4.652c.423-1.787-.657-3.441-1.695-4.805a53.954,53.954,0,0,0-7.862-7.913V219c3.515-3.759,6.951-7.615,10.2-11.6,1.152-1.411,2.882-2.937,2.412-4.945a7.845,7.845,0,0,0-1.713-2.932,63.715,63.715,0,0,0-7.17-7.246q-4.789-4.358-9.847-8.411a74.17,74.17,0,0,0-8.809-6.512c-2.673-1.562-5.092,2.585-2.423,4.144Z"/>
<path class="b" d="M160.112,392.333H370.849c3.088,0,3.094-4.8,0-4.8H160.112c-3.089,0-3.094,4.8,0,4.8Z"/>
<path class="b" d="M180.737,35.438a63.012,63.012,0,0,1,7.477-10.017A62.554,62.554,0,0,1,199.5,16.332a71.167,71.167,0,0,1,25.125-9.978c13.831-2.69,28.675-2.2,41.643,3.732,7.283,3.334,13.71,8.366,17.585,15.482,1.478,2.714,5.624.294,4.144-2.423C280.382,9.16,264.464,2.527,249.366.557a80.1,80.1,0,0,0-22.8.607,76.308,76.308,0,0,0-26.634,9.273,72.292,72.292,0,0,0-13.922,10.4,65.538,65.538,0,0,0-9.415,12.181c-1.662,2.615,2.49,5.026,4.144,2.423Z"/>
<path class="b" d="M180.409,91.837a70.189,70.189,0,0,1,.3-45.378,48.9,48.9,0,0,0,2.881-13.565,2.4,2.4,0,1,0-4.8,0,41.581,41.581,0,0,1-2.477,11.658,67.027,67.027,0,0,0-3.2,12.03,78.537,78.537,0,0,0-.2,24.336,71.037,71.037,0,0,0,2.867,12.195c.969,2.918,5.606,1.667,4.629-1.276Z"/>
<path class="b" d="M291.305,32.651c7.209,3.549,11.741,10.837,14.6,18.1,3.087,7.852,3.935,16.589,3.658,24.965a64.958,64.958,0,0,1-2.285,15.372c-.833,2.98,3.8,4.251,4.629,1.276a74.446,74.446,0,0,0,1.834-29.5,54.547,54.547,0,0,0-8.7-24.037,30.356,30.356,0,0,0-11.312-10.319,2.463,2.463,0,0,0-3.284.861,2.423,2.423,0,0,0,.861,3.284Z"/>
<path class="b" d="M303.055,97.036a6.121,6.121,0,0,1,8.587.793c1.211,1.594,1.289,3.87,1.352,5.783a30.793,30.793,0,0,1-.4,6.252c-1.315,7.625-5.365,16.916-13.863,18.367a2.42,2.42,0,0,0-1.677,2.952,2.457,2.457,0,0,0,2.953,1.677c8.562-1.463,13.668-9.455,16.105-17.153a36.207,36.207,0,0,0,1.636-12.986c-.254-4.222-1.467-8.21-5.343-10.435a11.1,11.1,0,0,0-12.749,1.356,2.421,2.421,0,0,0,0,3.394,2.448,2.448,0,0,0,3.394,0Z"/>
<path class="b" d="M296.885,124.139a29.188,29.188,0,0,1-1.4,7.425c-.27.9-.567,1.8-.867,2.688-.076.229-.15.46-.234.687-.036.1-.079.19-.112.287-.171.5.14-.31.031-.07a58.982,58.982,0,0,1-3.84,7.034,68.873,68.873,0,0,1-15.316,17.673,29.284,29.284,0,0,1-11.431,5.794c-3.009.69-1.735,5.319,1.276,4.628,8.578-1.967,15.757-8.157,21.412-14.626a74.293,74.293,0,0,0,11.829-17.6,37.344,37.344,0,0,0,3.453-13.922c.1-3.09-4.7-3.086-4.8,0Z"/>
<path class="b" d="M187.57,93.642a11.061,11.061,0,0,0-11.186-2.084c-4.14,1.638-6.219,5.107-6.748,9.408a35.145,35.145,0,0,0,6.155,24.318c2.811,3.8,6.68,6.765,11.428,7.576a2.471,2.471,0,0,0,2.952-1.677,2.42,2.42,0,0,0-1.676-2.952c-8.5-1.451-12.549-10.743-13.864-18.367a30.937,30.937,0,0,1-.4-6.252c.063-1.911.143-4.192,1.353-5.783a6.121,6.121,0,0,1,8.587-.793,2.461,2.461,0,0,0,3.394,0,2.421,2.421,0,0,0,0-3.394Z"/>
<path class="b" d="M185.889,123.262a69.153,69.153,0,0,0,8.668,24.192c4.988,8.2,12.232,15.618,20.777,20.11a40,40,0,0,0,14.59,4.4,2.416,2.416,0,0,0,2.4-2.4,2.453,2.453,0,0,0-2.4-2.4c-17.359-1.793-30.872-17.343-36.316-32.987a77.053,77.053,0,0,1-3.091-12.191,2.419,2.419,0,0,0-2.952-1.676,2.454,2.454,0,0,0-1.676,2.952Z"/>
<path class="b" d="M274.41,60.305c7.117,2.608,12.32,8.34,16.187,14.684,3.748,6.151,7.112,13.131,8.567,20.23a2.4,2.4,0,1,0,4.628-1.276c-1.217-5.941-3.842-11.736-6.635-17.084a52.528,52.528,0,0,0-11.433-15.324,31.21,31.21,0,0,0-10.038-5.858,2.421,2.421,0,0,0-2.952,1.676,2.449,2.449,0,0,0,1.676,2.952Z"/>
<path class="b" d="M276.083,54.488A59.156,59.156,0,0,1,249.2,64.255a126.568,126.568,0,0,1-27.659.19,100.481,100.481,0,0,1-15.493-3.31c-2.975-.853-4.245,3.778-1.276,4.628A101.882,101.882,0,0,0,233.093,69.9c10.328-.019,20.814-.764,30.69-3.944a60.594,60.594,0,0,0,14.723-7.326c2.564-1.7.163-5.856-2.423-4.144Z"/>
<path class="b" d="M204.8,64.311a45.618,45.618,0,0,1-19.947,29.064c-2.562,1.7-.161,5.86,2.422,4.145,11.193-7.43,19.523-18.635,22.154-31.933a2.462,2.462,0,0,0-1.677-2.952,2.422,2.422,0,0,0-2.952,1.676Z"/>
<path class="b" d="M233.346,141.378a22.56,22.56,0,0,0,10.868,2.506c3.846-.025,7.785-.76,10.871-3.165a2.412,2.412,0,0,0,0-3.394,2.461,2.461,0,0,0-3.394,0c.7-.544.051-.054-.128.06-.223.143-.453.275-.687.4-.143.075-.921.417-.369.2-.312.126-.627.241-.948.344a17.11,17.11,0,0,1-5.7.762,17.821,17.821,0,0,1-5.442-.733c-.348-.1-.686-.227-1.029-.345-.112-.039-.22-.088-.331-.129.6.219.089.039-.027-.015q-.637-.3-1.259-.629a2.453,2.453,0,0,0-3.284.861,2.427,2.427,0,0,0,.861,3.284Z"/>
<path class="b" d="M243.217,115.487a52.314,52.314,0,0,1,1.227,5.615l-.086-.638a3.359,3.359,0,0,1,.021.776l.086-.639a1.891,1.891,0,0,1-.085.349l.242-.573a1.477,1.477,0,0,1-.123.224l.375-.486a1.211,1.211,0,0,1-.184.181l.486-.375a3.565,3.565,0,0,1-.445.235l.574-.242a3.275,3.275,0,0,1-.75.219l.638-.086a3.014,3.014,0,0,1-.7,0l.638.086c-.265-.037-.525-.1-.791-.138a2.655,2.655,0,0,0-1.849.242,2.4,2.4,0,0,0-.861,3.284,2.3,2.3,0,0,0,1.434,1.1c.562.076,1.107.22,1.677.245a5.27,5.27,0,0,0,2.417-.567,3.385,3.385,0,0,0,1.907-2.243,5.817,5.817,0,0,0-.027-2.471c-.3-1.809-.724-3.6-1.189-5.376a2.4,2.4,0,1,0-4.628,1.276Z"/>
<path class="b" d="M213.061,99.711c-.938,3.047-.326,10.058,5.447,10.654,7.631-.045,8.037-8.521,5.468-12.506C221.873,94.6,215.689,93.239,213.061,99.711Z"/>
<path class="b" d="M274.169,99.711c.938,3.047.327,10.058-5.446,10.654-7.631-.046-8.038-8.521-5.469-12.507C265.357,94.6,271.541,93.239,274.169,99.711Z"/>
</g>
</svg>